<svg width="1133" height="637" viewBox="0 0 1133 637" fill="none" xmlns="http://www.w3.org/2000/svg">
<g clip-path="url(#clip0_6_544)">
<mask id="mask0_6_544" style="mask-type:alpha" maskUnits="userSpaceOnUse" x="0" y="68" width="1133" height="494">
<rect x="0.34845" y="68.6101" width="1131.66" height="492.707" fill="url(#paint0_linear_6_544)"/>
</mask>
<g mask="url(#mask0_6_544)">
<path d="M990.169 133.32L926.206 111.953L662.784 112.778L617.184 96.3967L578.602 112.424L413.732 111.973L348.404 82.0179H253.415L238.722 111.963H155.934L0.34845 359.73L173.542 555.223H959.184L1132.38 359.73L990.159 133.31L990.169 133.32ZM955.189 546.36H177.536L11.4 358.827L160.851 120.826H244.268L258.951 90.8807H346.47L411.778 120.826L580.359 121.287L617.41 105.888L661.243 121.641L924.773 120.816L984.339 140.711L1121.33 358.807L955.189 546.34V546.36Z" fill="url(#paint1_linear_6_544)"/>
</g>
<path d="M1121.33 358.826L955.189 546.349H177.536L11.3998 358.826L160.851 120.825H244.268L258.951 90.8798H346.47L411.788 120.825L580.358 121.296L617.41 105.897L661.243 121.649L924.772 120.825L984.339 140.73L1121.33 358.826Z" fill="url(#paint2_linear_6_544)"/>
<path d="M1121.31 358.826L984.346 140.729L924.76 120.835L661.25 121.639L617.417 105.887L580.346 121.286L411.776 120.835L346.468 90.8895H258.958L244.275 120.835H160.868L11.4073 358.826H111.352L186.681 414.82H308.68L326.946 358.826H406.083L424.27 279.6H442.32L466.7 268.98L461.586 322.746L528.995 358.826H1121.31Z" fill="#4A357D"/>
<path d="M64.3315 329.568H149.476L164.11 301.498H126.352L153.068 254.661L196.842 238.722L210.671 212.221L169.007 226.718L191.179 187.841L178.115 168.103H202.446H233.677L243.07 150.093H177.046L64.3315 329.568Z" fill="white"/>
<path d="M277.206 120.137L227.779 220.995L287.708 256.564L311.225 268.715L275.636 288.04L250.52 353.496H210.21L253.317 253.845L221.114 234.589L160.233 358.796L196.342 385.561H287.453L332.592 247.132L270.905 213.182L304.109 136.43H333.789L353.988 144.92L325.417 158.258L305.915 209.109L339.158 226.972L369.545 133.78L340.041 120.137H277.206Z" fill="white"/>
<path d="M388.321 150.091L336.773 329.566H382.775L400.972 250.341H436.227L480.021 231.27L488.138 165.373L454.335 150.091H388.311H388.321ZM447.436 188.36L440.369 227.472H406.233L419.866 168.092H451.097L474.142 177.465L447.436 188.35V188.36Z" fill="white"/>
<path d="M507.395 150.091L492.555 306.138L536.33 329.566H621.474L610.157 165.373L573.43 150.091H507.405H507.395ZM574.048 205.31L575.147 301.486H537.389L542.405 168.092H573.636L597.633 177.465L574.058 205.31H574.048Z" fill="white"/>
<path d="M635.332 165.442L653.146 329.566H699.148L685.987 250.341H721.242L738.28 329.566H784.292L763.652 253.845L736.572 242.381L757.498 231.27L735.365 150.091H669.341L635.332 165.442V165.442ZM716.334 227.472H682.198L675.74 188.566L649.102 177.475L672.334 168.102H703.565L716.334 227.482V227.472Z" fill="white"/>
<path d="M752.433 168.102H783.183L838.058 329.566H884.07L827.654 187.604L795.432 167.886H850.081L842.17 150.091H747.182L752.433 168.102Z" fill="white"/>
<path d="M1003.97 226.971L965.15 165.167L920.002 150.091H853.977L886.877 220.994L980.736 256.563L1006.37 301.496H968.605L943.764 253.845L893.178 234.588L926.372 306.138L983.249 329.566H1068.39L1016.62 247.131L922.554 213.182L909.372 187.898L874.736 168.102H930.278L953.667 209.108L1003.97 226.971Z" fill="white"/>
<path d="M618.957 128.587C614.138 133.288 608.681 137.646 602.684 141.601C609.241 145.596 615.473 150.15 621.293 155.185C626.23 150.15 631.668 145.596 637.517 141.601C630.824 137.646 624.601 133.288 618.957 128.587Z" fill="#E2D45C"/>
<path d="M116.215 307.385L143.843 258.939C133.597 260.107 123.438 261.304 113.368 262.551L74.9822 323.678H145.905L154.394 307.385H116.215V307.385Z" fill="url(#paint3_linear_6_544)"/>
<path d="M314.308 243.793C303.335 244.51 292.431 245.275 281.595 246.09L290.566 251.41L320.04 266.633L325.478 249.937L314.308 243.793V243.793ZM280.349 292.171L254.575 359.383H201.251L245.869 256.248L235.132 249.829C229.91 250.281 224.699 250.742 219.516 251.223L167.684 356.978L198.287 379.67H283.176L318.45 271.491L280.349 292.171V292.171Z" fill="url(#paint4_linear_6_544)"/>
<path d="M451.964 237.07L435.014 244.451H396.294L378.097 323.677H344.599L368.459 240.594C395.921 239.151 423.766 237.973 451.964 237.07Z" fill="url(#paint5_linear_6_544)"/>
<path d="M615.163 323.678H537.812L498.788 302.801L505.177 235.678C514.747 235.481 524.346 235.324 533.984 235.197L531.275 307.385H581.105L580.281 234.814C584.688 234.804 589.104 234.794 593.531 234.794C598.713 234.794 603.886 234.804 609.038 234.824L615.163 323.678V323.678Z" fill="url(#paint6_linear_6_544)"/>
<path d="M776.589 323.677H743.042L726.003 244.451H679.039L692.201 323.677H658.428L648.819 235.137C677.557 235.49 705.99 236.128 734.081 237.031L722.882 242.979L758.726 258.153L776.589 323.677V323.677Z" fill="url(#paint7_linear_6_544)"/>
<path d="M842.91 241.938C833.311 241.379 823.663 240.849 813.966 240.358L842.282 323.677H875.398L842.91 241.938Z" fill="url(#paint8_linear_6_544)"/>
<path d="M1015.17 255.887C1005.33 254.856 995.414 253.855 985.423 252.893L1016.52 307.385H965.037L939.577 258.556L907.159 246.209C906.432 246.15 905.716 246.101 904.99 246.052L930.754 301.575L984.412 323.678H1057.75L1015.17 255.887V255.887Z" fill="url(#paint9_linear_6_544)"/>
<path fill-rule="evenodd" clip-rule="evenodd" d="M469.482 461.638V449.526L436.023 461.971H435.954V474.397H436.023L469.482 486.842V474.711L452.335 468.155L469.482 461.638V461.638Z" fill="#996DFF"/>
<path fill-rule="evenodd" clip-rule="evenodd" d="M663.288 486.214V474.103L680.425 467.586L663.288 461.068V448.957L696.698 461.392H696.777V473.828H696.698L663.288 486.204V486.214ZM648.939 431.85L629.29 494.92H640.959L660.609 431.85H648.939Z" fill="#996DFF"/>
<path fill-rule="evenodd" clip-rule="evenodd" d="M518.646 447.239C521.964 450.89 523.711 455.699 523.505 460.626V487.49H511.835V463.09C511.972 460.371 511.099 457.701 509.401 455.581C507.781 453.697 505.387 452.657 502.903 452.765C495.601 452.765 491.94 457.829 491.94 467.968V487.499H480.27V443.391H491.94V447.376C495.64 443.774 500.666 441.86 505.828 442.076C510.637 441.87 515.309 443.755 518.637 447.239H518.646Z" fill="white"/>
<path fill-rule="evenodd" clip-rule="evenodd" d="M538.354 425.048V488.118H550.024V425.048H538.354Z" fill="white"/>
<path fill-rule="evenodd" clip-rule="evenodd" d="M615.959 485.811H606.222L596.682 459.831L587.054 485.811H577.337L560.986 441.625H573.451L582.637 468.046L592.109 441.625H601.207L610.678 468.135L619.865 441.625H632.33L615.959 485.811V485.811Z" fill="white"/>
<path d="M47.9227 103.866C61.1335 71.9575 87.8103 46.8118 127.188 29.1352C164.916 12.1947 212.724 2.77245 269.268 1.14318C385.182 -2.2037 525.112 27.4569 663.257 84.6874C673.189 88.7999 683.034 93.0203 692.77 97.3486L679 97.3879C673.091 94.8262 667.134 92.3038 661.127 89.8206C378.095 -27.4083 105.31 -20.1551 53.0558 105.996C37.9213 142.527 42.9171 185.074 64.5294 229.948C117.52 340.051 270.505 464.121 471.592 547.41C491.045 555.468 510.518 562.967 529.961 569.906C647.926 612.031 764.438 633.379 863.294 630.522C919.111 628.913 966.193 619.657 1003.25 603.021C1041.31 585.943 1067.01 561.789 1079.66 531.235C1091.08 503.665 1091.04 472.67 1081.04 439.829L1085.31 435.01C1097.03 471.207 1096.87 504.254 1084.81 533.365C1071.59 565.273 1044.92 590.419 1005.53 608.095C967.803 625.036 920.004 634.458 863.461 636.087C857.552 636.254 851.585 636.343 845.558 636.343C745.908 636.343 630.161 613.111 513.707 569.906C498.956 564.439 484.204 558.648 469.462 552.543C331.318 495.322 211.399 417.363 131.801 333.024C100.501 299.859 76.7882 267.136 61.0746 235.444C57.2861 227.818 53.9686 220.26 51.1223 212.772C35.7817 172.423 34.702 135.784 47.9227 103.866V103.866Z" fill="url(#paint10_linear_6_544)"/>
<path d="M47.9227 103.866C61.1335 71.9575 87.8103 46.8118 127.188 29.1352C164.916 12.1947 212.724 2.77245 269.268 1.14318C385.182 -2.2037 525.112 27.4569 663.257 84.6874C673.189 88.7999 683.034 93.0203 692.77 97.3486L679 97.3879C673.091 94.8262 667.134 92.3038 661.127 89.8206C378.095 -27.4083 105.31 -20.1551 53.0558 105.996C37.9213 142.527 42.9171 185.074 64.5294 229.948C117.52 340.051 270.505 464.121 471.592 547.41C491.045 555.468 510.518 562.967 529.961 569.906C647.926 612.031 764.438 633.379 863.294 630.522C919.111 628.913 966.193 619.657 1003.25 603.021C1041.31 585.943 1067.01 561.789 1079.66 531.235C1091.08 503.665 1091.04 472.67 1081.04 439.829L1085.31 435.01C1097.03 471.207 1096.87 504.254 1084.81 533.365C1071.59 565.273 1044.92 590.419 1005.53 608.095C967.803 625.036 920.004 634.458 863.461 636.087C857.552 636.254 851.585 636.343 845.558 636.343C745.908 636.343 630.161 613.111 513.707 569.906C498.956 564.439 484.204 558.648 469.462 552.543C331.318 495.322 211.399 417.363 131.801 333.024C100.501 299.859 76.7882 267.136 61.0746 235.444C57.2861 227.818 53.9686 220.26 51.1223 212.772C35.7817 172.423 34.702 135.784 47.9227 103.866V103.866Z" fill="url(#paint11_radial_6_544)"/>
<path d="M47.9227 103.866C61.1335 71.9575 87.8103 46.8118 127.188 29.1352C164.916 12.1947 212.724 2.77245 269.268 1.14318C385.182 -2.2037 525.112 27.4569 663.257 84.6874C673.189 88.7999 683.034 93.0203 692.77 97.3486L679 97.3879C673.091 94.8262 667.134 92.3038 661.127 89.8206C378.095 -27.4083 105.31 -20.1551 53.0558 105.996C37.9213 142.527 42.9171 185.074 64.5294 229.948C117.52 340.051 270.505 464.121 471.592 547.41C491.045 555.468 510.518 562.967 529.961 569.906C647.926 612.031 764.438 633.379 863.294 630.522C919.111 628.913 966.193 619.657 1003.25 603.021C1041.31 585.943 1067.01 561.789 1079.66 531.235C1091.08 503.665 1091.04 472.67 1081.04 439.829L1085.31 435.01C1097.03 471.207 1096.87 504.254 1084.81 533.365C1071.59 565.273 1044.92 590.419 1005.53 608.095C967.803 625.036 920.004 634.458 863.461 636.087C857.552 636.254 851.585 636.343 845.558 636.343C745.908 636.343 630.161 613.111 513.707 569.906C498.956 564.439 484.204 558.648 469.462 552.543C331.318 495.322 211.399 417.363 131.801 333.024C100.501 299.859 76.7882 267.136 61.0746 235.444C57.2861 227.818 53.9686 220.26 51.1223 212.772C35.7817 172.423 34.702 135.784 47.9227 103.866V103.866Z" fill="url(#paint12_radial_6_544)"/>
<path d="M47.9227 103.866C61.1335 71.9575 87.8103 46.8118 127.188 29.1352C164.916 12.1947 212.724 2.77245 269.268 1.14318C385.182 -2.2037 525.112 27.4569 663.257 84.6874C673.189 88.7999 683.034 93.0203 692.77 97.3486L679 97.3879C673.091 94.8262 667.134 92.3038 661.127 89.8206C378.095 -27.4083 105.31 -20.1551 53.0558 105.996C37.9213 142.527 42.9171 185.074 64.5294 229.948C117.52 340.051 270.505 464.121 471.592 547.41C491.045 555.468 510.518 562.967 529.961 569.906C647.926 612.031 764.438 633.379 863.294 630.522C919.111 628.913 966.193 619.657 1003.25 603.021C1041.31 585.943 1067.01 561.789 1079.66 531.235C1091.08 503.665 1091.04 472.67 1081.04 439.829L1085.31 435.01C1097.03 471.207 1096.87 504.254 1084.81 533.365C1071.59 565.273 1044.92 590.419 1005.53 608.095C967.803 625.036 920.004 634.458 863.461 636.087C857.552 636.254 851.585 636.343 845.558 636.343C745.908 636.343 630.161 613.111 513.707 569.906C498.956 564.439 484.204 558.648 469.462 552.543C331.318 495.322 211.399 417.363 131.801 333.024C100.501 299.859 76.7882 267.136 61.0746 235.444C57.2861 227.818 53.9686 220.26 51.1223 212.772C35.7817 172.423 34.702 135.784 47.9227 103.866V103.866Z" fill="url(#paint13_radial_6_544)"/>
<path d="M1084.81 103.866C1071.59 71.9575 1044.92 46.8118 1005.54 29.1352C967.812 12.1947 920.004 2.77245 863.46 1.14318C747.546 -2.2037 607.615 27.4569 469.471 84.6874C459.538 88.7999 449.694 93.0203 439.958 97.3486L453.728 97.3879C459.637 94.8262 465.594 92.3038 471.601 89.8206C754.633 -27.4083 1027.42 -20.1551 1079.67 105.996C1094.81 142.527 1089.81 185.074 1068.2 229.948C1015.21 340.051 862.223 464.121 661.136 547.41C641.683 555.468 622.21 562.967 602.767 569.906C484.802 612.031 368.289 633.379 269.434 630.522C213.617 628.913 166.535 619.657 129.474 603.021C91.4215 585.943 65.7163 561.789 53.0649 531.235C41.6502 503.665 41.6895 472.67 51.6908 439.829L47.4214 435.01C35.7024 471.207 35.8594 504.254 47.9219 533.365C61.1426 565.273 87.8096 590.419 127.197 608.095C164.925 625.036 212.724 634.458 269.267 636.087C275.176 636.254 281.143 636.343 287.169 636.343C386.82 636.343 502.567 613.111 619.02 569.906C633.772 564.439 648.524 558.648 663.266 552.543C801.41 495.322 921.329 417.363 1000.93 333.024C1032.23 299.859 1055.94 267.136 1071.65 235.444C1075.44 227.818 1078.76 220.26 1081.61 212.772C1096.95 172.423 1098.03 135.784 1084.81 103.866V103.866Z" fill="url(#paint14_linear_6_544)"/>
<path d="M1084.81 103.866C1071.59 71.9575 1044.92 46.8118 1005.54 29.1352C967.812 12.1947 920.004 2.77245 863.46 1.14318C747.546 -2.2037 607.615 27.4569 469.471 84.6874C459.538 88.7999 449.694 93.0203 439.958 97.3486L453.728 97.3879C459.637 94.8262 465.594 92.3038 471.601 89.8206C754.633 -27.4083 1027.42 -20.1551 1079.67 105.996C1094.81 142.527 1089.81 185.074 1068.2 229.948C1015.21 340.051 862.223 464.121 661.136 547.41C641.683 555.468 622.21 562.967 602.767 569.906C484.802 612.031 368.289 633.379 269.434 630.522C213.617 628.913 166.535 619.657 129.474 603.021C91.4215 585.943 65.7163 561.789 53.0649 531.235C41.6502 503.665 41.6895 472.67 51.6908 439.829L47.4214 435.01C35.7024 471.207 35.8594 504.254 47.9219 533.365C61.1426 565.273 87.8096 590.419 127.197 608.095C164.925 625.036 212.724 634.458 269.267 636.087C275.176 636.254 281.143 636.343 287.169 636.343C386.82 636.343 502.567 613.111 619.02 569.906C633.772 564.439 648.524 558.648 663.266 552.543C801.41 495.322 921.329 417.363 1000.93 333.024C1032.23 299.859 1055.94 267.136 1071.65 235.444C1075.44 227.818 1078.76 220.26 1081.61 212.772C1096.95 172.423 1098.03 135.784 1084.81 103.866V103.866Z" fill="url(#paint15_radial_6_544)"/>
<path d="M1084.81 103.866C1071.59 71.9575 1044.92 46.8118 1005.54 29.1352C967.812 12.1947 920.004 2.77245 863.46 1.14318C747.546 -2.2037 607.615 27.4569 469.471 84.6874C459.538 88.7999 449.694 93.0203 439.958 97.3486L453.728 97.3879C459.637 94.8262 465.594 92.3038 471.601 89.8206C754.633 -27.4083 1027.42 -20.1551 1079.67 105.996C1094.81 142.527 1089.81 185.074 1068.2 229.948C1015.21 340.051 862.223 464.121 661.136 547.41C641.683 555.468 622.21 562.967 602.767 569.906C484.802 612.031 368.289 633.379 269.434 630.522C213.617 628.913 166.535 619.657 129.474 603.021C91.4215 585.943 65.7163 561.789 53.0649 531.235C41.6502 503.665 41.6895 472.67 51.6908 439.829L47.4214 435.01C35.7024 471.207 35.8594 504.254 47.9219 533.365C61.1426 565.273 87.8096 590.419 127.197 608.095C164.925 625.036 212.724 634.458 269.267 636.087C275.176 636.254 281.143 636.343 287.169 636.343C386.82 636.343 502.567 613.111 619.02 569.906C633.772 564.439 648.524 558.648 663.266 552.543C801.41 495.322 921.329 417.363 1000.93 333.024C1032.23 299.859 1055.94 267.136 1071.65 235.444C1075.44 227.818 1078.76 220.26 1081.61 212.772C1096.95 172.423 1098.03 135.784 1084.81 103.866V103.866Z" fill="url(#paint16_radial_6_544)"/>
</g>
<defs>
<linearGradient id="paint0_linear_6_544" x1="566.176" y1="297.788" x2="566.176" y2="539.234" gradientUnits="userSpaceOnUse">
<stop stop-color="#D9D9D9"/>
<stop offset="1" stop-color="#D9D9D9" stop-opacity="0"/>
</linearGradient>
<linearGradient id="paint1_linear_6_544" x1="0.34845" y1="318.615" x2="1132.39" y2="318.615" gradientUnits="userSpaceOnUse">
<stop stop-color="#996DFF"/>
<stop offset="0.5" stop-color="#35E8B3"/>
<stop offset="1" stop-color="#E2D45C"/>
</linearGradient>
<linearGradient id="paint2_linear_6_544" x1="566.362" y1="365.922" x2="566.362" y2="541.687" gradientUnits="userSpaceOnUse">
<stop stop-color="#28203E"/>
<stop offset="1" stop-color="#121214" stop-opacity="0"/>
</linearGradient>
<linearGradient id="paint3_linear_6_544" x1="114.693" y1="243.215" x2="114.693" y2="312.479" gradientUnits="userSpaceOnUse">
<stop stop-color="#A9A9AD"/>
<stop offset="1" stop-color="#A9A9AD" stop-opacity="0"/>
</linearGradient>
<linearGradient id="paint4_linear_6_544" x1="246.586" y1="243.214" x2="246.586" y2="312.478" gradientUnits="userSpaceOnUse">
<stop stop-color="#A9A9AD"/>
<stop offset="1" stop-color="#A9A9AD" stop-opacity="0"/>
</linearGradient>
<linearGradient id="paint5_linear_6_544" x1="398.287" y1="243.214" x2="398.287" y2="312.478" gradientUnits="userSpaceOnUse">
<stop stop-color="#A9A9AD"/>
<stop offset="1" stop-color="#A9A9AD" stop-opacity="0"/>
</linearGradient>
<linearGradient id="paint6_linear_6_544" x1="556.98" y1="243.215" x2="556.98" y2="312.479" gradientUnits="userSpaceOnUse">
<stop stop-color="#A9A9AD"/>
<stop offset="1" stop-color="#A9A9AD" stop-opacity="0"/>
</linearGradient>
<linearGradient id="paint7_linear_6_544" x1="712.704" y1="243.215" x2="712.704" y2="312.478" gradientUnits="userSpaceOnUse">
<stop stop-color="#A9A9AD"/>
<stop offset="1" stop-color="#A9A9AD" stop-opacity="0"/>
</linearGradient>
<linearGradient id="paint8_linear_6_544" x1="844.687" y1="243.214" x2="844.687" y2="312.478" gradientUnits="userSpaceOnUse">
<stop stop-color="#A9A9AD"/>
<stop offset="1" stop-color="#A9A9AD" stop-opacity="0"/>
</linearGradient>
<linearGradient id="paint9_linear_6_544" x1="981.369" y1="243.216" x2="981.369" y2="312.479" gradientUnits="userSpaceOnUse">
<stop stop-color="#A9A9AD"/>
<stop offset="1" stop-color="#A9A9AD" stop-opacity="0"/>
</linearGradient>
<linearGradient id="paint10_linear_6_544" x1="1027.48" y1="455.808" x2="262.898" y2="459.734" gradientUnits="userSpaceOnUse">
<stop stop-color="#996DFF"/>
<stop offset="0.5" stop-color="#35E8B3"/>
<stop offset="1" stop-color="#E2D45C"/>
</linearGradient>
<radialGradient id="paint11_radial_6_544" cx="0" cy="0" r="1" gradientUnits="userSpaceOnUse" gradientTransform="translate(559.382 581.583) rotate(15.7611) scale(513.968 853.485)">
<stop stop-color="#171226"/>
<stop offset="1" stop-color="#171226" stop-opacity="0"/>
</radialGradient>
<radialGradient id="paint12_radial_6_544" cx="0" cy="0" r="1" gradientUnits="userSpaceOnUse" gradientTransform="translate(691.166 100.178) rotate(-157.036) scale(115.678 192.093)">
<stop stop-color="#261945"/>
<stop offset="1" stop-color="#261945" stop-opacity="0"/>
</radialGradient>
<radialGradient id="paint13_radial_6_544" cx="0" cy="0" r="1" gradientUnits="userSpaceOnUse" gradientTransform="translate(1086.52 426.931) rotate(76.7293) scale(131.072 217.656)">
<stop stop-color="#191326"/>
<stop offset="1" stop-color="#191326" stop-opacity="0"/>
</radialGradient>
<linearGradient id="paint14_linear_6_544" x1="595.486" y1="71.2934" x2="766.385" y2="504.558" gradientUnits="userSpaceOnUse">
<stop stop-color="#996DFF"/>
<stop offset="0.5" stop-color="#35E8B3"/>
<stop offset="1" stop-color="#E2D45C"/>
</linearGradient>
<radialGradient id="paint15_radial_6_544" cx="0" cy="0" r="1" gradientUnits="userSpaceOnUse" gradientTransform="translate(429.401 109.806) rotate(-19.3523) scale(261.495 434.233)">
<stop stop-color="#171225"/>
<stop offset="1" stop-color="#171225" stop-opacity="0"/>
</radialGradient>
<radialGradient id="paint16_radial_6_544" cx="0" cy="0" r="1" gradientUnits="userSpaceOnUse" gradientTransform="translate(47.8875 432.949) rotate(67.4706) scale(175.898 292.093)">
<stop stop-color="#191327"/>
<stop offset="1" stop-color="#191327" stop-opacity="0"/>
</radialGradient>
<clipPath id="clip0_6_544">
<rect width="1132.04" height="635.455" fill="white" transform="translate(0.348389 0.887512)"/>
</clipPath>
</defs>
</svg>
